<svg xmlns="http://www.w3.org/2000/svg" xmlns:xlink="http://www.w3.org/1999/xlink" version="1.1" x="0px" y="0px" viewBox="0 0 66 82.5" style="enable-background:new 0 0 66 66;" xml:space="preserve"><path d="M61.37,45.29c-0.41,0-0.75,0.34-0.75,0.75v13.53c0,2.17-1.76,3.93-3.93,3.93h-0.92l0.01-17.62c0-1.22-1-2.21-2.22-2.21H48.5  v5.09c0,0.46-0.25,0.88-0.64,1.11c-0.4,0.23-0.89,0.22-1.28-0.01l-1.82-1.06l-1.83,1.06c-0.2,0.12-0.42,0.18-0.64,0.18  c-0.22,0-0.44-0.06-0.63-0.17c-0.4-0.23-0.64-0.65-0.64-1.11v-5.09h-5.06c-1.22,0-2.21,0.99-2.21,2.21V63.5h-1.5V45.88  c0-1.22-0.99-2.21-2.22-2.21h-5.05v5.09c0,0.46-0.24,0.88-0.64,1.11c-0.39,0.23-0.88,0.22-1.28-0.01l-1.82-1.06l-1.82,1.06  c-0.2,0.12-0.42,0.18-0.65,0.18c-0.22,0-0.43-0.06-0.63-0.17c-0.39-0.23-0.64-0.65-0.64-1.11v-5.09h-5.05  c-1.22,0-2.22,0.99-2.22,2.21V63.5H9.32c-2.17,0-3.93-1.76-3.93-3.93V46.04c0-0.41-0.34-0.75-0.75-0.75s-0.75,0.34-0.75,0.75v13.53  c0,3,2.44,5.43,5.43,5.43h23.68c0,0,0,0,0.01,0c0,0,0,0,0.01,0h23.68c3,0,5.43-2.44,5.43-5.43V46.04  C62.12,45.62,61.78,45.29,61.37,45.29z M46.16,57.98c0-0.79,0.64-1.44,1.43-1.44h5.2c0.79,0,1.43,0.65,1.43,1.44v2.57  c0,0.79-0.64,1.43-1.43,1.43h-5.2c-0.79,0-1.43-0.64-1.43-1.43V57.98z M36.04,57.17h6.78c0.41,0,0.75,0.33,0.75,0.75  c0,0.41-0.34,0.75-0.75,0.75h-6.78c-0.41,0-0.75-0.34-0.75-0.75C35.29,57.5,35.63,57.17,36.04,57.17z M36.04,60.01h3.68  c0.42,0,0.75,0.34,0.75,0.75c0,0.42-0.33,0.75-0.75,0.75h-3.68c-0.41,0-0.75-0.33-0.75-0.75C35.29,60.35,35.63,60.01,36.04,60.01z   M22.64,57.98c0-0.79,0.65-1.44,1.44-1.44h5.19c0.79,0,1.44,0.65,1.44,1.44v2.57c0,0.79-0.65,1.43-1.44,1.43h-5.19  c-0.79,0-1.44-0.64-1.44-1.43V57.98z M12.52,57.17h6.78c0.41,0,0.75,0.33,0.75,0.75c0,0.41-0.34,0.75-0.75,0.75h-6.78  c-0.41,0-0.74-0.34-0.74-0.75C11.78,57.5,12.11,57.17,12.52,57.17z M12.52,60.01h3.69c0.41,0,0.75,0.34,0.75,0.75  c0,0.42-0.34,0.75-0.75,0.75h-3.69c-0.41,0-0.74-0.33-0.74-0.75C11.78,60.35,12.11,60.01,12.52,60.01z"/><polygon points="29.27,60.48 29.21,58.04 24.08,58.04 24.14,60.55 "/><path d="M21.24,47.26c0.22,0,0.45,0.06,0.64,0.18l1.6,0.93v-4.7H19v4.7l1.6-0.94C20.8,47.32,21.02,47.26,21.24,47.26z"/><path d="M42.52,48.37l1.59-0.94c0.4-0.23,0.89-0.23,1.29,0.01l1.6,0.93v-4.7h-4.48V48.37z"/><polygon points="52.79,60.48 52.72,58.04 47.59,58.04 47.66,60.55 "/><path d="M24.2,42.17h17.6c1.22,0,2.21-1,2.21-2.21V24.55c0-1.22-1-2.22-2.22-2.22h-5.05v5.1c0,0.46-0.25,0.88-0.64,1.11  c-0.2,0.11-0.42,0.16-0.63,0.16c-0.23,0-0.45-0.05-0.65-0.17L33,27.46l-1.83,1.07c-0.39,0.23-0.88,0.23-1.27,0.01  c-0.4-0.23-0.64-0.65-0.64-1.11v-5.1h-5.05c-1.22,0-2.22,1-2.22,2.22v15.41C21.99,41.17,22.98,42.17,24.2,42.17z M34.4,36.64  c0-0.79,0.65-1.43,1.44-1.43h5.19c0.79,0,1.43,0.64,1.43,1.43v2.58c0,0.79-0.64,1.43-1.43,1.43h-5.19c-0.79,0-1.44-0.64-1.44-1.43  V36.64z M24.28,35.84h6.78c0.41,0,0.75,0.33,0.75,0.75c0,0.41-0.34,0.75-0.75,0.75h-6.78c-0.41,0-0.75-0.34-0.75-0.75  C23.53,36.17,23.87,35.84,24.28,35.84z M24.28,38.68h3.69c0.41,0,0.75,0.34,0.75,0.75c0,0.41-0.34,0.75-0.75,0.75h-3.69  c-0.41,0-0.75-0.34-0.75-0.75C23.53,39.02,23.87,38.68,24.28,38.68z"/><path d="M33.01,43.67C33.01,43.66,33,43.66,33.01,43.67c-0.01-0.01-0.02-0.01-0.02,0H33.01z"/><path d="M33,25.93c0.22,0,0.44,0.06,0.64,0.17l1.6,0.94v-4.71h-4.48v4.71l1.6-0.94C32.55,25.99,32.78,25.93,33,25.93z"/><polygon points="41.03,39.15 40.97,36.71 35.84,36.71 35.9,39.22 "/><path d="M33.51,20.83h17.6c1.22,0,2.21-0.99,2.21-2.21V3.21c0-1.22-1-2.21-2.22-2.21h-5.05v5.1c0,0.45-0.25,0.88-0.64,1.1  c-0.4,0.23-0.89,0.23-1.28,0l-1.82-1.07L40.48,7.2c-0.19,0.11-0.42,0.17-0.64,0.17c-0.22,0-0.44-0.06-0.63-0.17  c-0.4-0.22-0.64-0.65-0.64-1.1V1h-5.05C32.3,1,31.3,1.99,31.3,3.21v15.41C31.3,19.84,32.29,20.83,33.51,20.83z M43.71,15.31  c0-0.79,0.64-1.43,1.43-1.43h5.2c0.79,0,1.43,0.64,1.43,1.43v2.57c0,0.79-0.64,1.44-1.43,1.44h-5.2c-0.79,0-1.43-0.65-1.43-1.44  V15.31z M33.59,14.5h6.78c0.41,0,0.75,0.34,0.75,0.75c0,0.42-0.34,0.75-0.75,0.75h-6.78c-0.41,0-0.75-0.33-0.75-0.75  C32.84,14.84,33.18,14.5,33.59,14.5z M33.59,17.35h3.69c0.41,0,0.75,0.33,0.75,0.75c0,0.41-0.34,0.75-0.75,0.75h-3.69  c-0.41,0-0.75-0.34-0.75-0.75C32.84,17.68,33.18,17.35,33.59,17.35z"/><path d="M42.95,4.77l1.6,0.93V1h-4.48v4.7l1.6-0.93C42.06,4.54,42.55,4.54,42.95,4.77z"/><polygon points="50.34,17.82 50.28,15.38 45.14,15.38 45.21,17.88 "/><text x="0" y="81" fill="#000000" font-size="5px" font-weight="bold" font-family="'Helvetica Neue', Helvetica, Arial-Unicode, Arial, Sans-serif">Created by Design Circle</text><text x="0" y="86" fill="#000000" font-size="5px" font-weight="bold" font-family="'Helvetica Neue', Helvetica, Arial-Unicode, Arial, Sans-serif">from the Noun Project</text></svg>